<svg xmlns="http://www.w3.org/2000/svg" width="32" height="32" id="house"><g color="#000" font-family="sans-serif" font-weight="400"><path fill="#2b4255" d="M-196.502 9.858a4.01 4.01 0 0 0-4.004 4.002 4.01 4.01 0 0 0 4.004 4.002 4.01 4.01 0 0 0 4.002-4.002 4.01 4.01 0 0 0-4.002-4.002zm0 1a2.994 2.994 0 0 1 3.002 3.002 2.994 2.994 0 0 1-3.002 3.002 2.996 2.996 0 0 1-3.004-3.002 2.996 2.996 0 0 1 3.004-3.002z" overflow="visible" style="line-height:normal;text-indent:0;text-align:start;text-decoration-line:none;text-decoration-style:solid;text-decoration-color:#000;text-transform:none;block-progression:tb;isolation:auto;mix-blend-mode:normal" transform="translate(217 6.638)"></path><path fill="#f05542" d="M-214.508 7.257a.5.5 0 0 0-.492.506v13.1a.5.5 0 0 0 .5.5h11a.5.5 0 0 0 .5-.5v-13a.5.5 0 1 0-1 0v12.5h-10v-12.6a.5.5 0 0 0-.508-.506z" overflow="visible" style="line-height:normal;text-indent:0;text-align:start;text-decoration-line:none;text-decoration-style:solid;text-decoration-color:#000;text-transform:none;block-progression:tb;isolation:auto;mix-blend-mode:normal" transform="translate(217 6.638)"></path><path fill="#2b4255" d="M-210.498 13.362a.5.5 0 0 0-.5.5v7a.5.5 0 1 0 1 0v-6.5h2v6.5a.5.5 0 1 0 1 0v-7a.5.5 0 0 0-.5-.5h-3z" overflow="visible" style="line-height:normal;text-indent:0;text-align:start;text-decoration-line:none;text-decoration-style:solid;text-decoration-color:#000;text-transform:none;block-progression:tb;isolation:auto;mix-blend-mode:normal" transform="translate(217 6.638)"></path><path fill="#f05542" fill-rule="evenodd" d="M-208.955 1.536a.5.5 0 0 0-.363.152l-7.537 7.823a.5.5 0 1 0 .72.693l7.178-7.45 7.178 7.45a.5.5 0 1 0 .718-.693l-7.537-7.823a.5.5 0 0 0-.357-.152z" overflow="visible" style="line-height:normal;text-indent:0;text-align:start;text-decoration-line:none;text-decoration-style:solid;text-decoration-color:#000;text-transform:none;block-progression:tb;isolation:auto;mix-blend-mode:normal" transform="translate(217 6.638)"></path><path fill="#f05542" d="M-214.5 3.362a.5.5 0 0 0-.5.5v4a.5.5 0 1 0 1 0v-3.5h1v1.291a.5.5 0 1 0 1 0v-1.79a.5.5 0 0 0-.5-.5h-2z" overflow="visible" style="line-height:normal;text-indent:0;text-align:start;text-decoration-line:none;text-decoration-style:solid;text-decoration-color:#000;text-transform:none;block-progression:tb;isolation:auto;mix-blend-mode:normal" transform="translate(217 6.638)"></path><path fill="#2b4255" d="M-208.998 5.362a2.508 2.508 0 0 0-2.5 2.5c0 1.375 1.125 2.5 2.5 2.5s2.5-1.125 2.5-2.5-1.125-2.5-2.5-2.5zm0 1c.834 0 1.5.666 1.5 1.5 0 .835-.666 1.5-1.5 1.5s-1.5-.665-1.5-1.5c0-.834.666-1.5 1.5-1.5z" overflow="visible" style="line-height:normal;text-indent:0;text-align:start;text-decoration-line:none;text-decoration-style:solid;text-decoration-color:#000;text-transform:none;block-progression:tb;isolation:auto;mix-blend-mode:normal" transform="translate(217 6.638)"></path><path fill="#f05542" fill-rule="evenodd" d="M-196.994 13.362v8h1v-8h-1z" overflow="visible" style="line-height:normal;text-indent:0;text-align:start;text-decoration-line:none;text-decoration-style:solid;text-decoration-color:#000;text-transform:none;block-progression:tb;isolation:auto;mix-blend-mode:normal" transform="translate(217 6.638)"></path><path fill="#f05542" fill-rule="evenodd" d="M-198.5 12.858a.5.5 0 0 0-.348.858l2 2a.5.5 0 1 0 .707-.707l-2-2a.5.5 0 0 0-.359-.15Z" overflow="visible" style="line-height:normal;text-indent:0;text-align:start;text-decoration-line:none;text-decoration-style:solid;text-decoration-color:#000;text-transform:none;block-progression:tb;isolation:auto;mix-blend-mode:normal" transform="translate(217 6.638)"></path><path fill="#f05542" fill-rule="evenodd" d="M-195.004 14.352a.5.5 0 0 0-.344.153l-1.5 1.5a.5.5 0 1 0 .707.707l1.5-1.5a.5.5 0 0 0-.363-.86z" overflow="visible" style="line-height:normal;text-indent:0;text-align:start;text-decoration-line:none;text-decoration-style:solid;text-decoration-color:#000;text-transform:none;block-progression:tb;isolation:auto;mix-blend-mode:normal" transform="translate(217 6.638)"></path><path fill="#2b4255" d="M-188.5 3.362c-1.653 0-3 1.347-3 3v7.5c0 1.654 1.347 3 3 3s3-1.346 3-3v-7.5c0-1.653-1.347-3-3-3zm0 1c1.117 0 2 .884 2 2v7.5c0 1.117-.883 2-2 2s-2-.883-2-2v-7.5c0-1.116.883-2 2-2z" overflow="visible" style="line-height:normal;text-indent:0;text-align:start;text-decoration-line:none;text-decoration-style:solid;text-decoration-color:#000;text-transform:none;block-progression:tb;isolation:auto;mix-blend-mode:normal" transform="translate(217 6.638)"></path><path fill="#f05542" fill-rule="evenodd" d="M-189 6.407v14.955h1V6.407h-1z" overflow="visible" style="line-height:normal;text-indent:0;text-align:start;text-decoration-line:none;text-decoration-style:solid;text-decoration-color:#000;text-transform:none;block-progression:tb;isolation:auto;mix-blend-mode:normal" transform="translate(217 6.638)"></path><path fill="#f05542" fill-rule="evenodd" d="M-187.004 13.108a.5.5 0 0 0-.344.15l-1.5 1.5a.5.5 0 0 0 .707.71l1.5-1.502a.5.5 0 0 0-.363-.858z" overflow="visible" style="line-height:normal;text-indent:0;text-align:start;text-decoration-line:none;text-decoration-style:solid;text-decoration-color:#000;text-transform:none;block-progression:tb;isolation:auto;mix-blend-mode:normal" transform="translate(217 6.638)"></path><path fill="#f05542" fill-rule="evenodd" d="M-190.01 13.108a.5.5 0 0 0-.35.858l1.5 1.502a.5.5 0 1 0 .708-.71l-1.5-1.5a.5.5 0 0 0-.358-.15zm3.006-3a.5.5 0 0 0-.344.15l-1.5 1.5a.5.5 0 1 0 .707.708l1.5-1.5a.5.5 0 0 0-.363-.858z" overflow="visible" style="line-height:normal;text-indent:0;text-align:start;text-decoration-line:none;text-decoration-style:solid;text-decoration-color:#000;text-transform:none;block-progression:tb;isolation:auto;mix-blend-mode:normal" transform="translate(217 6.638)"></path><path fill="#f05542" fill-rule="evenodd" d="M-190.01 10.108a.5.5 0 0 0-.35.858l1.5 1.5a.5.5 0 1 0 .708-.707l-1.5-1.5a.5.5 0 0 0-.358-.15zm3.006-3a.5.5 0 0 0-.344.15l-1.5 1.5a.5.5 0 1 0 .707.708l1.5-1.5a.5.5 0 0 0-.363-.858z" overflow="visible" style="line-height:normal;text-indent:0;text-align:start;text-decoration-line:none;text-decoration-style:solid;text-decoration-color:#000;text-transform:none;block-progression:tb;isolation:auto;mix-blend-mode:normal" transform="translate(217 6.638)"></path><path fill="#f05542" fill-rule="evenodd" d="M-190.01 7.108a.5.5 0 0 0-.35.858l1.5 1.5a.5.5 0 1 0 .708-.707l-1.5-1.5a.5.5 0 0 0-.358-.15z" overflow="visible" style="line-height:normal;text-indent:0;text-align:start;text-decoration-line:none;text-decoration-style:solid;text-decoration-color:#000;text-transform:none;block-progression:tb;isolation:auto;mix-blend-mode:normal" transform="translate(217 6.638)"></path><path fill="#2b4255" fill-rule="evenodd" d="M-217 20.362v1h16v-1h-16zm17 0v1h1v-1h-1zm2 0v1h4v-1h-4zm5 0v1h1v-1h-1zm2 0v1h6v-1h-6z" overflow="visible" style="line-height:normal;text-indent:0;text-align:start;text-decoration-line:none;text-decoration-style:solid;text-decoration-color:#000;text-transform:none;block-progression:tb;isolation:auto;mix-blend-mode:normal" transform="translate(217 6.638)"></path><path fill="#f05542" d="M-202-4.138a3.508 3.508 0 0 0-3.5 3.5c0 1.927 1.573 3.5 3.5 3.5s3.5-1.573 3.5-3.5-1.573-3.5-3.5-3.5zm0 1c1.387 0 2.5 1.114 2.5 2.5 0 1.387-1.113 2.5-2.5 2.5a2.492 2.492 0 0 1-2.5-2.5c0-1.386 1.113-2.5 2.5-2.5z" overflow="visible" style="line-height:normal;text-indent:0;text-align:start;text-decoration-line:none;text-decoration-style:solid;text-decoration-color:#000;text-transform:none;block-progression:tb;isolation:auto;mix-blend-mode:normal" transform="translate(217 6.638)"></path><path fill="#2b4255" fill-rule="evenodd" d="M-205 22.362v1h1v-1h-1zm2 0v1h8v-1h-8zm-4 0v1h1v-1h-1z" overflow="visible" style="line-height:normal;text-indent:0;text-align:start;text-decoration-line:none;text-decoration-style:solid;text-decoration-color:#000;text-transform:none;block-progression:tb;isolation:auto;mix-blend-mode:normal" transform="translate(217 6.638)"></path></g></svg>