<svg xmlns="http://www.w3.org/2000/svg" viewBox="0 0 28 28" id="map"><path fill="#ef4c45" fill-rule="evenodd" d="M28 13.987C28 21.728 21.722 28 14 28 6.251 28 0 21.728 0 13.987 0 6.272 6.251 0 14 0c7.722 0 14 6.272 14 13.987z" clip-rule="evenodd"></path><path fill="#fff" d="M21 20.309V10.191l-4-2-.477-.238-.523.209-4.477 1.791L7 7.691v10.118l4 2 .477.238.523-.209 4.477-1.791L21 20.309zm-1-9.5v7.882l-3-1.5V9.309l3 1.5zM8 17.191V9.309l3 1.5v7.882l-3-1.5zm4-6.353 4-1.6v7.923l-4 1.6v-7.923z"></path></svg>