<svg xmlns="http://www.w3.org/2000/svg" viewBox="0 0 64 64" id="money"><path d="M61 7H3a3 3 0 0 0-3 3v34a3 3 0 0 0 3 3h.5v2a3 3 0 0 0 3 3H7v2a3 3 0 0 0 3 3h44a3 3 0 0 0 3-3v-2h.5a3 3 0 0 0 3-3v-2h.5a3 3 0 0 0 3-3V10a3 3 0 0 0-3-3Zm-6 47a1 1 0 0 1-1 1H10a1 1 0 0 1-1-1v-2h46Zm3.5-5a1 1 0 0 1-1 1h-51a1 1 0 0 1-1-1v-2h53Zm3.5-5a1 1 0 0 1-1 1H3a1 1 0 0 1-1-1V10a1 1 0 0 1 1-1h58a1 1 0 0 1 1 1Z"></path><path d="M56 21a6 6 0 0 1-6-6 1 1 0 0 0-1-1H15a1 1 0 0 0-1 1 6 6 0 0 1-6 6 1 1 0 0 0-1 1v10a1 1 0 0 0 1 1 6 6 0 0 1 6 6 1 1 0 0 0 1 1h34a1 1 0 0 0 1-1 6 6 0 0 1 6-6 1 1 0 0 0 1-1V22a1 1 0 0 0-1-1Zm-1 10.06A8 8 0 0 0 48.06 38H15.94A8 8 0 0 0 9 31.06v-8.12A8 8 0 0 0 15.94 16h32.12A8 8 0 0 0 55 22.94Z"></path><path d="M32 18a9 9 0 1 0 9 9 9 9 0 0 0-9-9Zm0 16a7 7 0 1 1 7-7 7 7 0 0 1-7 7Z"></path></svg>