<svg xmlns="http://www.w3.org/2000/svg" viewBox="0 0 28 28" id="search"><path fill="#ef4c45" fill-rule="evenodd" d="M28 13.987C28 21.728 21.722 28 14 28 6.251 28 0 21.728 0 13.987 0 6.272 6.251 0 14 0c7.722 0 14 6.272 14 13.987z" clip-rule="evenodd"></path><path fill="#fff" d="M16.7 15.8c-2.481 0-4.5-2.019-4.5-4.5s2.019-4.5 4.5-4.5 4.5 2.019 4.5 4.5-2.018 4.5-4.5 4.5zm0-8c-1.93 0-3.5 1.57-3.5 3.5s1.57 3.5 3.5 3.5 3.5-1.57 3.5-3.5-1.57-3.5-3.5-3.5z"></path><path fill="#fff" d="m12.03 15.261 1.792-1.792.707.707-1.791 1.792z"></path><path fill="#fff" d="M8.922 21.2 6.8 19.078l4.95-4.949 2.121 2.121-4.949 4.95zm-.708-2.122.708.708 3.535-3.536-.707-.707-3.536 3.535z"></path></svg>