<svg xmlns="http://www.w3.org/2000/svg" viewBox="0 0 52 52" id="house"><path d="M47.18 34.387h-6.79V22.588H11.61v11.799H4.82a1 1 0 1 0 0 2h1.31v4.841c0 .55.45 1 1 1h14.32v-12.58c0-.55.45-1 1-1h7.1c.55 0 1 .45 1 1v12.58h14.32c.55 0 1-.45 1-1v-4.841h1.31a1 1 0 1 0 0-2zM8.13 40.228v-3.841h3.48v3.841H8.13zm35.74 0h-3.48v-3.841h3.48v3.841zM34.947 46.106a1 1 0 1 0 0-2H17.053a1 1 0 1 0 0 2h17.894zM38.66 48.002H13.34a1 1 0 1 0 0 2h25.32a1 1 0 1 0 0-2z"></path><path fill="#fc0000" d="M42.47 20.178a1 1 0 0 1-.81.41H10.34a1 1 0 0 1-.81-.41c-.19-.26-.24-.59-.15-.89l3.25-10.35c.13-.42.52-.7.95-.7h24.84c.43 0 .82.28.95.7l3.25 10.35c.09.3.04.63-.15.89zM35.11 6.238h-9.46v-3.24c0-.55.45-1 1-1h7.46c.56 0 1 .45 1 1v3.24z"></path></svg>