<svg xmlns="http://www.w3.org/2000/svg" data-name="Layer 2" viewBox="0 0 64 64" id="bed"><path d="M60 40h-1v-4a5 5 0 0 0-5-5h-1V18a7 7 0 0 0-7-7H18a7 7 0 0 0-7 7v13h-1a5 5 0 0 0-5 5v4H4a1 1 0 0 0-1 1v11a1 1 0 0 0 1 1h7.33a1 1 0 0 0 .95-.68l.72-2.27a3 3 0 0 1 2.84-2h32.28a3 3 0 0 1 2.84 2l.76 2.27a1 1 0 0 0 1 .68H60a1 1 0 0 0 1-1V41a1 1 0 0 0-1-1ZM13 18a5 5 0 0 1 5-5h28a5 5 0 0 1 5 5v13h-3.18c.3-.84.13-1.21.18-3a3 3 0 0 0-3-3h-7a3 3 0 0 0-3 3c0 1.79-.12 2.16.18 3h-6.36c.3-.84.13-1.21.18-3a3 3 0 0 0-3-3h-7a3 3 0 0 0-3 3c.05 1.79-.12 2.16.18 3H13Zm24 12v-2a1 1 0 0 1 1-1h7a1 1 0 0 1 1 1v2a1 1 0 0 1-1 1h-7a1 1 0 0 1-1-1Zm-19 0v-2a1 1 0 0 1 1-1h7a1 1 0 0 1 1 1v2a1 1 0 0 1-1 1h-7a1 1 0 0 1-1-1ZM7 36a3 3 0 0 1 3-3h44a3 3 0 0 1 3 3v4H7Zm52 15h-5.61l-.53-1.58A5 5 0 0 0 48.12 46H15.88a5 5 0 0 0-4.74 3.42L10.61 51H5v-9h54Z"></path></svg>