<svg xmlns="http://www.w3.org/2000/svg" enable-background="new 0 0 64 64" viewBox="0 0 64 64" id="calendar"><path d="M53.96,4.9h-3.1V4.3c0-2.37-1.93-4.3-4.3-4.3c-2.37,0-4.3,1.93-4.3,4.3v0.6H21.74V4.3c0-2.37-1.93-4.3-4.3-4.3
		c-2.37,0-4.3,1.93-4.3,4.3v0.6h-3.1c-4.19,0-7.59,3.41-7.59,7.59v43.92c0,4.19,3.41,7.59,7.59,7.59h43.92
		c4.19,0,7.59-3.41,7.59-7.59V12.49C61.55,8.3,58.15,4.9,53.96,4.9z M44.73,4.3c0-1.01,0.82-1.83,1.83-1.83
		c1.01,0,1.83,0.82,1.83,1.83v6.49c0,1.01-0.82,1.83-1.83,1.83c-1.01,0-1.83-0.82-1.83-1.83V4.3z M15.61,4.3
		c0-1.01,0.82-1.83,1.83-1.83s1.83,0.82,1.83,1.83v6.49c0,1.01-0.82,1.83-1.83,1.83s-1.83-0.82-1.83-1.83V4.3z M59.08,56.41
		c0,2.82-2.3,5.12-5.12,5.12H10.04c-2.82,0-5.12-2.3-5.12-5.12V20.46h54.17V56.41z M59.08,17.99H4.92v-5.5
		c0-2.83,2.3-5.12,5.12-5.12h3.1v3.43c0,2.37,1.93,4.3,4.3,4.3c2.37,0,4.3-1.93,4.3-4.3V7.37h20.52v3.43c0,2.37,1.93,4.3,4.3,4.3
		c2.37,0,4.3-1.93,4.3-4.3V7.37h3.1c2.83,0,5.12,2.3,5.12,5.12V17.99z"></path><path d="M24.57,51.72L52.31,26.8c0.51-0.46,0.55-1.24,0.09-1.74c-0.46-0.51-1.24-0.55-1.74-0.09L24.77,48.22l-9.8-11.11
		c-0.45-0.51-1.23-0.56-1.74-0.11c-0.51,0.45-0.56,1.23-0.11,1.74L24.57,51.72z"></path></svg>