<svg xmlns="http://www.w3.org/2000/svg" width="2000" height="2000" enable-background="new 0 0 2000 2000" viewBox="0 0 2000 2000" id="shower"><path d="M1490.4277,998.1401c-0.3008-85.3262-33.6689-165.4995-94.0381-225.8667
		c-53.5127-53.5127-122.5928-85.7915-197.0254-92.6445v-113.584c0-72.5366-28.4258-140.9102-80.04-192.5249
		c-51.6152-51.6152-119.9893-80.0405-192.5273-80.0405H782.1348c-72.5361,0-140.9092,28.4258-192.5234,80.0405
		s-80.04,119.9883-80.04,192.5249v1110.4756c0,16.5684,13.4316,30,30,30s30-13.4316,30-30V566.0449
		c0-117.209,95.3555-212.5654,212.5635-212.5654h144.6621c117.21,0,212.5674,95.3564,212.5674,212.5654v113.584
		c-74.4316,6.853-143.5107,39.1323-197.0234,92.645c-60.6416,60.6406-94.0381,141.2671-94.0381,227.0269c0,16.5684,13.4316,30,30,30
		h582.127c0.0059,0,0.0137,0,0.0195,0c16.5693,0,30-13.4316,30-30C1490.4492,998.9126,1490.4424,998.5249,1490.4277,998.1401z
		 M910.0156,969.3008c14.9307-129.8687,125.5469-231.0635,259.3486-231.0635c133.8037,0,244.4219,101.1948,259.3525,231.0635
		H910.0156z"></path><path d="M933.5303 1076.7905c-16.5684 0-30 13.4316-30 30v140.126c0 16.5684 13.4316 30 30 30s30-13.4316 30-30v-140.126C963.5303 1090.2222 950.0986 1076.7905 933.5303 1076.7905zM1169.3643 1076.7905c-16.5684 0-30 13.4316-30 30v140.126c0 16.5684 13.4316 30 30 30s30-13.4316 30-30v-140.126C1199.3643 1090.2222 1185.9326 1076.7905 1169.3643 1076.7905zM1405.1982 1076.7905c-16.5684 0-30 13.4316-30 30v140.126c0 16.5684 13.4316 30 30 30s30-13.4316 30-30v-140.126C1435.1982 1090.2222 1421.7666 1076.7905 1405.1982 1076.7905z"></path></svg>