<svg xmlns="http://www.w3.org/2000/svg" viewBox="0 0 32 32" id="user"><path fill="#010101" d="M27.149 14.111a3.25 3.25 0 0 0 1.137-2.457 3.273 3.273 0 0 0-3.27-3.269 3.234 3.234 0 0 0-3.269 3.269c0 .979.441 1.849 1.125 2.448a3.946 3.946 0 0 0-.992.459 4.464 4.464 0 0 0-3.139-1.537c1.049-.825 1.736-2.09 1.736-3.524 0-2.523-1.977-4.5-4.5-4.5a4.505 4.505 0 0 0-4.5 4.5c0 1.437.689 2.704 1.741 3.529a4.464 4.464 0 0 0-3.098 1.533 3.946 3.946 0 0 0-.992-.459 3.248 3.248 0 0 0 1.125-2.448 3.234 3.234 0 0 0-3.269-3.269 3.273 3.273 0 0 0-3.27 3.269c0 .984.446 1.858 1.137 2.457C3.208 14.609 2 16.119 2 17.923V23.5a.5.5 0 0 0 .5.5H9v2.5a.5.5 0 0 0 .5.5h13a.5.5 0 0 0 .5-.5V24h6.5a.5.5 0 0 0 .5-.5v-5.577c0-1.804-1.208-3.314-2.851-3.812zm-2.133-4.726c1.272 0 2.27.997 2.27 2.269a2.272 2.272 0 0 1-2.27 2.269c-1.272 0-2.269-.997-2.269-2.269s.997-2.269 2.269-2.269zM12.477 9.5c0-1.962 1.538-3.5 3.5-3.5s3.5 1.538 3.5 3.5-1.538 3.5-3.5 3.5c-1.93 0-3.5-1.57-3.5-3.5zm-5.493-.115c1.272 0 2.269.997 2.269 2.269s-.997 2.269-2.269 2.269a2.273 2.273 0 0 1-2.27-2.269c0-1.273.997-2.269 2.27-2.269zM5 23v-4.5a.5.5 0 0 0-1 0V23H3v-5.077c0-1.654 1.346-3 3-3h2c.546 0 1.072.152 1.542.442-.049.091-.087.186-.13.28-.024.054-.052.105-.074.16a4.434 4.434 0 0 0-.224.719c-.013.056-.022.113-.032.171A4.404 4.404 0 0 0 9 17.5V23H5zm17 3h-2v-7.5a.5.5 0 0 0-1 0V26h-6v-7.5a.5.5 0 0 0-1 0V26h-2v-8.5c0-.216.026-.425.064-.629.012-.067.03-.132.046-.198.034-.138.076-.272.125-.403.027-.07.052-.141.083-.209.061-.133.132-.26.209-.384.032-.051.057-.105.091-.155A3.496 3.496 0 0 1 13.5 14h5c1.195 0 2.25.604 2.882 1.521.034.05.059.104.091.155.076.124.148.251.209.384.031.068.057.139.083.209.05.131.092.265.125.403.016.066.034.131.046.198.038.205.064.414.064.63V26zm7-3h-1v-4.5a.5.5 0 0 0-1 0V23h-4v-5.5c0-.273-.033-.541-.081-.806a4.434 4.434 0 0 0-.256-.89c-.022-.055-.05-.106-.074-.16-.043-.094-.081-.189-.13-.28.47-.29.996-.442 1.542-.442h2c1.654 0 3 1.346 3 3V23z"></path></svg>