<svg xmlns="http://www.w3.org/2000/svg" enable-background="new 0 0 64 64" viewBox="0 0 64 64" id="sun-tanning"><path d="M56.24,18.21c-0.19,0-0.38-0.09-0.49-0.26v0c-1.24-1.83-2.52-2.79-3.8-2.85c-1.35-0.05-2.78,0.85-4.29,2.71
				c-0.14,0.17-0.37,0.23-0.56,0.15c-0.2-0.08-0.33-0.28-0.31-0.49c0.48-6.59-2.13-12.31-7.55-16.56c-0.17-0.13-0.23-0.36-0.16-0.56
				c0.08-0.2,0.27-0.33,0.49-0.32c9.04,0.54,15.81,7.42,17.24,17.51c0.04,0.27-0.11,0.53-0.37,0.63
				C56.38,18.19,56.31,18.21,56.24,18.21z M41.1,1.18c4.48,4.02,6.79,9.14,6.73,14.97c1.41-1.41,2.8-2.1,4.17-2.04
				c1.24,0.05,2.44,0.73,3.58,2C53.89,7.94,48.4,2.29,41.1,1.18z"></path><path d="M47.29,17.99c-0.17,0-0.32-0.08-0.42-0.23c-1.3-2.04-2.64-3.11-3.98-3.19c-1.34-0.09-2.8,0.83-4.33,2.71
				c-0.13,0.17-0.36,0.22-0.56,0.15c-0.2-0.08-0.33-0.27-0.31-0.49l0.95-16.47c0.02-0.26,0.25-0.48,0.5-0.46
				c0.15,0,0.29,0.01,0.44,0.02c0.1,0.01,0.2,0.04,0.27,0.1c5.68,4.45,8.42,10.47,7.92,17.4c-0.02,0.21-0.16,0.39-0.37,0.44
				C47.37,17.99,47.33,17.99,47.29,17.99z M42.73,13.58c0.07,0,0.14,0,0.22,0.01c1.36,0.08,2.67,0.9,3.91,2.45
				c0.02-5.85-2.47-10.96-7.26-14.86L38.75,15.6C40.09,14.26,41.42,13.58,42.73,13.58z"></path><path d="M38.18,17.46c-0.16,0-0.31-0.08-0.41-0.21c-1.18-1.73-2.44-2.66-3.75-2.79c-1.39-0.13-2.94,0.65-4.61,2.33
				c-0.14,0.15-0.36,0.19-0.55,0.1c-0.19-0.08-0.3-0.27-0.29-0.47c0.31-7,3.64-12.66,9.65-16.35C38.3,0.03,38.39,0,38.48,0
				c0.23,0,0.45,0,0.67,0.01c0.13,0,0.26,0.06,0.35,0.16c0.09,0.1,0.14,0.23,0.13,0.36L38.67,17c-0.01,0.21-0.16,0.39-0.36,0.45
				C38.26,17.46,38.22,17.46,38.18,17.46z M33.73,13.47c0.13,0,0.26,0.01,0.39,0.02c1.29,0.12,2.52,0.84,3.65,2.14L38.61,1
				c-5.28,3.29-8.36,8.2-8.96,14.24C31.06,14.06,32.42,13.47,33.73,13.47z"></path><path d="M29.07 16.94c-.17 0-.32-.08-.42-.23-1.29-2.02-2.61-3.09-3.95-3.19-1.28-.1-2.66.71-4.1 2.39-.18.21-.48.27-.72.14-.24-.13-.37-.4-.29-.67C22.44 4.75 31.12 0 38.47 0c.21 0 .43.14.49.36.06.21-.03.44-.22.55-5.72 3.51-8.89 8.89-9.18 15.55-.01.21-.16.4-.36.45C29.15 16.93 29.11 16.94 29.07 16.94zM19.86 15.26C19.86 15.26 19.86 15.26 19.86 15.26 19.86 15.26 19.86 15.26 19.86 15.26zM24.51 12.53c.09 0 .18 0 .27.01 1.36.1 2.67.94 3.9 2.5.6-5.78 3.36-10.56 8.07-13.97-7.23.68-13.18 5.59-15.73 13.02C22.19 13.05 23.36 12.53 24.51 12.53zM16.08 50.68c-.98 0-1.78-.8-1.78-1.78 0-.98.8-1.78 1.78-1.78.98 0 1.78.8 1.78 1.78C17.86 49.88 17.06 50.68 16.08 50.68zM16.08 48.11c-.44 0-.79.36-.79.79s.36.79.79.79c.44 0 .79-.36.79-.79S16.52 48.11 16.08 48.11z"></path><path d="M35.83 55.57c-.74 0-1.49-.02-2.27-.06-.18-.01-.24-.03-.29-.04l-16.15-5.67c-.26-.09-.39-.37-.3-.63.01-.04.03-.07.05-.1 0-.03 0-.05 0-.08.02-.27.26-.47.53-.45 5.03.44 9.31-.36 13.09-2.46 5.32-2.95 9.55-8.49 12.94-16.92 0-.01.05-.1.05-.11.08-.18.2-.28.29-.34.04-.03.08-.05.13-.06.12-.05.26-.06.41-.03l16.6 3.62c.33.08.56.36.59.68l0 0c.01.09.01.19-.01.26-.91 3.91-2.17 7.34-3.73 10.21-2.88 5.24-6.77 8.7-11.89 10.57-.02.01-.04.01-.06.02C42.86 55.04 39.58 55.57 35.83 55.57zM19.64 49.63l13.95 4.9c4.62.23 8.52-.26 11.94-1.51.02-.01.04-.01.06-.02 4.87-1.79 8.57-5.09 11.32-10.1 1.49-2.73 2.7-6.02 3.59-9.76l-16.2-3.54c-3.44 8.6-7.81 14.27-13.32 17.33C27.67 48.77 23.87 49.68 19.64 49.63zM35 33.18c-.13 0-.26-.01-.38-.03-1.23-.21-2.06-1.38-1.87-2.61.04-.27.29-.45.56-.41.27.04.45.3.41.56-.11.7.36 1.36 1.06 1.48.36.06.72-.03 1.01-.25.29-.22.47-.54.5-.9l1.39-14.1c.03-.27.27-.47.54-.44.27.03.47.27.44.54l-1.39 14.1c-.06.63-.39 1.21-.89 1.59C35.99 33.01 35.5 33.18 35 33.18zM10.47 14.64c-2.61 0-4.73-2.12-4.73-4.73s2.12-4.73 4.73-4.73 4.73 2.12 4.73 4.73S13.08 14.64 10.47 14.64zM10.47 6.16c-2.07 0-3.75 1.68-3.75 3.75s1.68 3.75 3.75 3.75 3.75-1.68 3.75-3.75S12.53 6.16 10.47 6.16zM10.47 3.75c-.27 0-.49-.22-.49-.49V.53c0-.27.22-.49.49-.49.27 0 .49.22.49.49v2.73C10.96 3.53 10.74 3.75 10.47 3.75zM5.76 5.7c-.13 0-.25-.05-.35-.14L3.49 3.62c-.19-.19-.19-.5 0-.7.19-.19.5-.19.7 0l1.93 1.93c.19.19.19.5 0 .7C6.02 5.65 5.89 5.7 5.76 5.7zM3.82 10.4H1.09c-.27 0-.49-.22-.49-.49 0-.27.22-.49.49-.49h2.73c.27 0 .49.22.49.49C4.31 10.18 4.09 10.4 3.82 10.4zM3.83 17.03c-.13 0-.25-.05-.35-.14-.19-.19-.19-.5 0-.7l1.93-1.93c.19-.19.5-.19.7 0 .19.19.19.5 0 .7l-1.93 1.93C4.09 16.98 3.96 17.03 3.83 17.03zM10.47 19.78c-.27 0-.49-.22-.49-.49v-2.73c0-.27.22-.49.49-.49.27 0 .49.22.49.49v2.73C10.96 19.56 10.74 19.78 10.47 19.78zM17.1 17.03c-.13 0-.25-.05-.35-.14l-1.93-1.93c-.19-.19-.19-.5 0-.7.19-.19.5-.19.7 0l1.93 1.93c.19.19.19.5 0 .7C17.35 16.98 17.22 17.03 17.1 17.03zM19.84 10.4h-2.73c-.27 0-.49-.22-.49-.49 0-.27.22-.49.49-.49h2.73c.27 0 .49.22.49.49C20.34 10.18 20.12 10.4 19.84 10.4zM15.17 5.7c-.13 0-.25-.05-.35-.14-.19-.19-.19-.5 0-.7l1.93-1.93c.19-.19.5-.19.7 0 .19.19.19.5 0 .7l-1.93 1.93C15.42 5.65 15.29 5.7 15.17 5.7z"></path><path d="M19.83 61.23c-.1 0-.21-.03-.3-.1-.22-.17-.26-.47-.09-.69l25.27-32.99c.17-.21.47-.26.69-.09.22.17.26.47.09.69L20.22 61.04C20.13 61.17 19.98 61.23 19.83 61.23zM38.2 64c-.1 0-.21-.03-.29-.1-.22-.16-.26-.47-.1-.69l24.71-33.08c.16-.22.47-.26.69-.1.22.16.26.47.1.69L38.6 63.8C38.5 63.93 38.35 64 38.2 64z"></path><path d="M62.18,62.38c-0.04,0-0.08,0-0.11-0.01l-28.84-6.93c-0.26-0.06-0.43-0.33-0.36-0.59c0.06-0.27,0.33-0.43,0.59-0.36
			l28.05,6.74l-5.65-21.84c-0.07-0.26,0.09-0.53,0.35-0.6c0.26-0.07,0.53,0.09,0.6,0.35l5.86,22.64c0.04,0.17,0,0.35-0.13,0.47
			C62.44,62.33,62.31,62.38,62.18,62.38z"></path></svg>