<svg xmlns="http://www.w3.org/2000/svg" viewBox="0 0 32 32" id="cabin"><path d="M7.46 19.29V26a.5.5 0 0 0 .5.5h16.08a.5.5 0 0 0 .5-.5V15.646a1.41 1.41 0 0 0 1.249-.531l.001-.002c.499-.62.4-1.543-.228-2.062l-1.022-.82V6a.5.5 0 0 0-.5-.5h-2.61a.5.5 0 0 0-.5.5v3.336L16.482 5.77l-.051-.07c-.166-.22-.63-.31-.861 0l-9.138 7.355c-1.093.904-.43 2.686 1.029 2.589v3.646zm16.08 4.49h-4.77v-1.49h4.771v1.49zM8.46 22.29h4.77v1.49H8.46v-1.49zm4.77-1H8.46v-1.5h4.77v1.5zm.5-2.5H8.46V17.3h15.08v1.49H13.73zm9.81 1v1.5h-4.77v-1.5h4.77zM8.46 16.3v-1.11L16 9.132l7.54 6.058v1.11H8.46zm0 8.48h4.77v.72H8.46v-.72zm5.77-.5v-4.49h3.54v5.71h-3.54v-1.22zm4.54 1.22v-.72h4.771v.72H18.77zm3.16-19h1.61v4.929l-1.61-1.291V6.5zM7.063 13.83 16 6.665l5.111 4.098c.003.002.003.005.006.008l2.403 1.924 1.411 1.131c.489.406-.098 1.11-.577.735l-8.041-6.46a.5.5 0 0 0-.626 0l-8.034 6.455c-.494.381-1.067-.329-.59-.726z"></path><path d="M18.268 11.913h-4.536a.5.5 0 0 0-.5.5v2.536a.5.5 0 0 0 .5.5h4.536a.5.5 0 0 0 .5-.5v-2.536a.5.5 0 0 0-.5-.5zm-.5 2.536h-3.536v-1.536h3.536v1.536zm-.893 7.806a.39.39 0 1 0 .001.781.39.39 0 0 0-.001-.781z"></path></svg>