<svg xmlns="http://www.w3.org/2000/svg" enable-background="new 0 0 100 100" viewBox="0 0 100 100" id="camping"><path d="M30.5 77.1c-.3 0-.5-.2-.6-.5-.1-.3.2-.6.5-.7.1 0 .2 0 .3 0 .5 0 1.8-.1 2.2-.8.2-.3.2-.8 0-1.4-.2-.5-.4-.7-.5-.9-.3-.3-.6-.6-.5-1.4.1-.6-.1-.9-.4-1.3-.4-.6-.9-1.4-.6-2.7 0-.2.1-.3.1-.4.1-.7.2-1 1.1-1.9.7-.7 1.8-.6 2.9-.5.9.1 1.8.1 2.3-.2 1.7-1.2 1-4.6-.2-6.5-.6-.9-1.2-1.1-1.9-1.4-.8-.3-1.8-.6-2.5-2.1-.4-.8-.4-1.5-.4-2.2 0-.7 0-1.2-.4-1.5-.3-.3-.5-.3-1-.3-.5 0-1.1-.1-1.7-.7-.5-.6-.7-.8-.7-1.1 0 0 0-.2-.4-.7-.7-1.1-2.1-1.4-3.2-.8-.4.2-.7.3-1 .3-.7.2-1.2.3-1.8 2.1-.6 1.6-.9 2.8-.9 2.8-.4 1.8-1.4 3.7-3.1 5.6-.2.2-.6.3-.8 0-.2-.2-.3-.6 0-.8 1.6-1.7 2.5-3.4 2.8-5 0-.1.4-1.4.9-3 .8-2.2 1.7-2.6 2.7-2.8.3-.1.5-.1.7-.2 1.7-.9 3.7-.4 4.8 1.2.5.7.5 1 .6 1.3 0 0 0 .1.4.4.2.3.5.3.9.3.5 0 1.1.1 1.7.7.7.7.7 1.6.7 2.4 0 .6 0 1.1.3 1.7.5 1 1.1 1.2 1.9 1.5.8.3 1.7.6 2.5 1.8 1.6 2.3 2.4 6.4-.1 8.2-.9.6-2 .5-3.1.4-.8-.1-1.6-.1-1.9.2-.7.7-.7.8-.8 1.2 0 .1 0 .3-.1.5-.2.9.1 1.3.4 1.8.3.5.7 1.1.6 2.1 0 .2 0 .3 0 .3 0 0 .1.1.1.1.2.2.6.5.9 1.4.3 1 .3 1.8-.2 2.4-.8 1.1-2.4 1.3-3.1 1.3C30.7 77.1 30.6 77.1 30.5 77.1 30.6 77.1 30.5 77.1 30.5 77.1zM54.9 21.2c-.5 0-1 0-1.5-.1-.7-.1-2.2-.3-2.5-1.4-.3-.9.5-1.8 1.1-2.5l0 0c.1-.1.1-.2.2-.3.3-.5.7-.9 1.2-.9 1.3 0 5.8.1 7.1 1.5.3.3.5.7.5 1.1 0 .3-.1.8-.7 1.2C59.4 20.6 57 21.2 54.9 21.2zM53 17.9L53 17.9c-.4.4-1 1.2-.9 1.5 0 .1.2.4 1.5.6 2.3.4 5.1-.3 6.1-1.1.2-.2.2-.3.2-.3 0 0 0-.1-.1-.2-.7-.7-3.2-1.1-6.2-1.2-.1.1-.3.3-.4.5C53.1 17.7 53 17.8 53 17.9L53 17.9zM73.3 34.4c-.5 0-.9-.1-1.2-.4-.5-.5-.8-1-1.2-1.4-.5-.7-1-1.4-1.5-1.4-.2 0-.4.1-.8.5-.4.4-1 1-1.9 1.4-1.2.5-3.6 1.1-4.7-.1-.9-1-.7-2.6-.1-3.7.4-.6.2-.9 0-1.4-.3-.6-.7-1.3 0-2.6 1.2-2.5 1.1-3.3 1-4.1 0-.2-.1-.4-.1-.6 0-.6.2-.9.4-1 .6-.4 1.3-.1 2 .2.2.1.6.2.8.3.2-.2.4-.2.7-.1.3.1.4.5.3.8-.4.8-1.4.4-2.2.1-.2-.1-.5-.2-.8-.3 0 .1 0 .3.1.4.1.9.3 2-1.1 4.8-.4.7-.2 1.1 0 1.6.3.6.6 1.3 0 2.5-.4.8-.5 1.8-.1 2.3.5.6 2.1.4 3.3-.1.8-.4 1.2-.8 1.6-1.2.4-.5.9-.9 1.7-.9 1 .1 1.7 1 2.4 1.9.3.4.6.9 1 1.3.1.1.7.2 1.6-.2 1.2-.5 2.4-1.5 2.4-2.4 0-.3.3-.6.6-.6s.6.3.6.6c0 1.5-1.6 2.9-3.1 3.5C74.4 34.2 73.8 34.4 73.3 34.4zM70.9 66.7c-.6 0-1.3-.1-1.7-.4-.4-.2-.7-.6-.8-.9-.2-.7.4-1.2.9-1.6.5-.4 1.1-.9 1.3-1.7.2-.7.1-1.3-.1-1.9-.2-.7-.3-1.4.2-2.1.5-.6 1.1-.6 1.6-.6.3 0 .5 0 .5-.1.1-.1-.1-.5-.2-1-.3-.6-.6-1.4-.6-2.5 0-1.5.6-2.6 1.1-3.4.1-.2.3-.5.4-.7-.1 0-.4 0-.6.1-.4.1-1.1.2-1.8.1-.8 0-2.5-.9-4.1-3.1 0-.1-.1-.1-.2-.3-.9-.9-3.5-3.8-1.1-6.6.4-.5.9-.8 1.3-1 .5-.3.9-.5 1.5-1.2.4-.6.6-.9.7-1.3.2-.4.3-.7.8-1.1.1 0 1.3-1 3.4-.5.5.1 1.1.3 1.1.3.1.1.2.1.3.1 1.5.6 2.5 1.6 3.3 2.4.9.9 1.4 1.4 2.1 1.3.4 0 .8-.2 1.2-.5l.8.9c-.6.5-1.2.7-1.8.8-1.3.1-2.2-.8-3.1-1.7-.7-.8-1.6-1.6-2.9-2.1l-.3-.1c0 0-.5-.2-.9-.3-1.6-.3-2.4.3-2.4.3-.2.2-.3.3-.4.6-.2.4-.4.8-.9 1.5-.7.9-1.4 1.3-1.9 1.6-.4.2-.7.4-1 .7-1.5 1.8-.3 3.6 1.1 5 .2.2.3.3.3.4 1.5 2.1 2.9 2.6 3.2 2.6.6 0 1.1-.1 1.5-.1.7-.1 1.4-.2 1.8.4.4.6 0 1.3-.4 2.1-.4.7-1 1.6-.9 2.8 0 .8.3 1.5.5 2 .3.7.6 1.4.1 2.1-.4.6-1 .6-1.5.6-.4 0-.6 0-.7.2-.1.2-.1.5 0 1.1.2.7.3 1.5.1 2.5-.3 1.2-1.1 1.8-1.7 2.3-.2.2-.4.4-.5.5.1.1 1.1.6 2.1.3.7-.2 1.1-.7 1.6-1.5.5-.8 1.2-1.8 2.5-2.9.6-.4 1-.7 1.3-.8.3-.2.5-.3.8-.6.2-.3.4-.5.5-.8.2-.5.3-1.1.4-1.8.1-.7.2-1.4.4-1.8.5-1.2 1.9-1.9 4.3-2.1l.1 1.2c-1.9.2-3 .7-3.4 1.4-.2.3-.3 1-.4 1.6-.1.7-.3 1.5-.5 2-.2.4-.4.7-.7 1.1-.4.5-.8.7-1.1.9-.3.1-.6.3-1.1.7-1.2.9-1.7 1.8-2.2 2.6-.6.9-1.1 1.7-2.2 2C71.7 66.6 71.3 66.7 70.9 66.7zM24.7 44.4c-.6 0-1.2-.2-1.4-.3-1.1-.4-1.6-1.3-2.1-2.2-.5-.8-1-1.8-2.1-2.9-.2-.2-.4-.4-.5-.5-.2-.2-.2-.6 0-.8s.6-.2.8 0c.1.1.3.3.5.5 1.2 1.2 1.8 2.3 2.3 3.1.6 1 .9 1.5 1.5 1.7.6.2 1.2.3 1.4.1.2-.3-.3-1.9-1.1-3.3-.6-1.1-1-1.6-1.3-1.9-.3-.4-.6-.6-.7-1.3-.5-1.9.5-4.4 2.2-5.6.6-.4 1-.5 2.2-.6.7-.1 1.6-.2 3-.5 2.8-.5 3.4-.7 3.8-.9 1.1-.6 1.6-1.3 2.1-2 .2-.3.4-.6.7-.9 2.2-2.4 5.2-2.7 7.7-2.9 1.6-.1 3-.2 3.2-.9.2-.5-.1-1.2-.5-1.9-.5-.8-1.3-1.3-1.9-1.3 0 0 0 0 0 0-.7 0-1.4.8-2 1.6-.7.8-1.4 1.7-2.2 1.4-.6-.2-.9-.9-1.1-1.5-.2-.6-.5-1.2-1-1.5-.3-.2-.4-.5-.2-.8.2-.3.5-.4.8-.2.8.5 1.2 1.4 1.5 2.1.1.3.3.8.4.8.1 0 .6-.6.9-1 .7-.9 1.6-2 2.9-2 0 0 0 0 0 0 1.2 0 2.2.9 2.9 1.8.7 1 1 2.1.7 3-.5 1.4-2.2 1.6-4.2 1.7-2.2.2-5 .4-6.9 2.5-.2.3-.4.5-.6.8-.6.8-1.2 1.6-2.5 2.3-.5.3-1.2.6-4.2 1.1-1.4.2-2.4.4-3.1.5-1.2.2-1.3.2-1.7.4-1.3.9-2.1 2.9-1.8 4.4.1.3.2.5.5.8.3.4.8.9 1.5 2.1.5.8 1.9 3.5 1 4.6l-.1.1C25.6 44.3 25.2 44.4 24.7 44.4z" display="none"></path><path d="M85.1,61.4c-2.3-2.5-8.6-9.7-9.3-12.9c0-0.1,0-0.5,0.1-0.6c0,0,0-0.1,0.2,0c2.6,0.1,3.5,0.1,3.9,0c1.4,0,2.6-0.8,3.2-2
	c0.5-1.1,0.2-2.4-0.7-3.4c-0.1-0.1-7.4-6.8-9.1-9.5c-0.1-0.2-0.2-0.3-0.3-0.5c1.8,0,4,0,4,0c0,0,0,0,0,0c1.1,0,2.2-0.6,2.6-1.7
	c0.5-1,0.3-2.2-0.4-3.1c-0.1-0.1-6.2-8.2-7.9-11.5c-0.9-1.8-2.6-3.4-3.6-3.5c-0.4,0-0.8,0.2-1,0.5c-2,3-11.8,14.4-11.9,14.5
	c-0.7,0.9-0.9,2.1-0.4,3.1c0.5,1,1.5,1.7,2.7,1.7c0,0,0,0,0,0c0,0,2.1,0,4,0c-0.1,0.1-0.2,0.3-0.3,0.5c-1.6,2.7-9,9.4-9.1,9.5
	c-0.9,0.9-1.1,2.2-0.6,3.3c0.5,1.2,1.8,2,3.2,2c0.4,0.1,1.3,0.1,3.9,0c0.2,0,0.2,0,0.2,0c0.1,0.1,0.1,0.5,0.1,0.6
	c-0.2,0.7-0.7,1.9-2.1,4L44.1,38.1c-0.3-0.4-0.8-0.7-1.2-0.8c0,0,0,0,0,0l0-2.2c0-0.5-0.5-1-1-1c0,0,0,0,0,0c-0.6,0-1,0.5-1,1l0,2.2
	c0,0,0,0,0,0c-0.5,0.2-0.9,0.4-1.2,0.8l-25,29.2c-0.7,0.9-0.9,2.1-0.4,3.1c0.5,1,1.5,1.7,2.6,1.7l27.4,0.1c-0.2,0.7-0.3,1.4-0.3,2.1
	c0,4.8,2,8.4,5.5,10l-5.6,1c-0.5,0.1-0.9,0.6-0.8,1.2c0.1,0.5,0.5,0.8,1,0.8c0.1,0,0.1,0,0.2,0l10.4-1.9L66,87.2
	c0.5,0.1,1.1-0.3,1.2-0.8c0.1-0.5-0.3-1.1-0.8-1.2l-5.7-1c4.2-1.7,6.6-5.3,6.6-10.5c0-0.5-0.1-1-0.3-1.6c1.1,0,2.1-0.7,2.5-1.7
	c0.4-0.8,0.4-1.7,0-2.4h12.7c0,0,0,0,0,0c1.5,0,2.9-0.9,3.6-2.3C86.3,64.3,86.1,62.6,85.1,61.4z M31.8,70.1c0-4.5,1.1-8.7,3-11.9
	c1.9-3.1,4.4-4.8,7-4.8c0,0,0,0,0,0c4.2,0,8.1,4.7,9.5,11.5c-0.1,0.2-0.1,0.4-0.2,0.5c-0.4-0.5-0.7-0.7-1.1-0.8l-0.5,0l-0.3,0.3
	c-1.8,1.6-3.2,3.4-4.1,5.2L31.8,70.1z M54.7,83.3L54.7,83.3l-0.1,0c-7.7,0-8.5-6.4-8.5-9.1c0-2.3,1.4-5,3.7-7.2
	c0.2,0.3,0.4,0.6,0.5,0.8c0.6,0.9,1,1.5,1.7,1.3l0.7-0.3V68c0-0.9,0-1.7,0.9-3.4c0.3-0.6,1.5-1.9,2-2.3c0.7,0.4,2.4,2.3,3.8,5.2
	c0.6,1.2,0.7,2.3,0.8,2.9c0,0.5,0.1,0.8,0.3,1.1l0.4,0.5l0.6-0.1c0.6-0.1,0.8-0.5,1.2-1.4c0.1-0.3,0.3-0.7,0.5-1.1
	c0.9,1.2,2,3.3,2,4.4C65.1,78.1,63.3,83.3,54.7,83.3z M67.5,69.6c-0.1,0.1-0.3,0.5-0.8,0.5c0,0,0,0,0,0l-0.8,0
	c-0.7-1.3-1.5-2.4-2-2.9c-0.3-0.3-0.7-0.4-1.1-0.4c-0.4,0.1-0.8,0.4-1.1,0.8c-0.1-0.4-0.3-0.8-0.5-1.2c-1.3-2.5-3.8-6.3-5.7-6.3
	c-1.1,0-2.7,1.9-3.4,2.9c-1.7-6.7-5.7-11-10.3-11c0,0,0,0,0,0c-3.1,0-5.9,1.9-8,5.4c-2,3.4-3.2,7.8-3.2,12.5l-13.7,0
	c-0.5,0-0.8-0.4-0.8-0.5s-0.2-0.6,0.1-1l25-29.2c0.2-0.3,0.5-0.3,0.7-0.3c0,0,0,0,0,0c0.2,0,0.5,0,0.7,0.3l24.9,29.3
	C67.8,69.1,67.6,69.5,67.5,69.6z M83.9,64.9c-0.3,0.7-1,1.1-1.8,1.1c0,0,0,0,0,0H67.8L57.7,54.1c1.5-2.2,2.4-3.9,2.7-5.1
	c0.2-0.6,0.1-1.6-0.5-2.3c-0.4-0.5-1.1-0.8-1.8-0.8c-2.5,0.1-3.3,0.1-3.5,0l-0.1,0l-0.2,0c0,0,0,0,0,0c-0.8,0-1.2-0.4-1.4-0.8
	c-0.1-0.2-0.2-0.7,0.2-1.1c0.3-0.3,7.6-7,9.4-10c0.8-1.4,1.2-2.2,0.8-2.9c-0.2-0.4-0.6-0.6-1-0.6c-2,0-5.1,0-5.3,0c0,0,0,0,0,0
	c-0.5,0-0.8-0.4-0.8-0.5c-0.1-0.1-0.2-0.6,0.1-1c0.4-0.4,8.8-10.2,11.6-14c0.5,0.4,1.2,1.1,1.6,2.1c1.8,3.5,7.8,11.5,8.1,11.9
	c0.4,0.4,0.2,0.9,0.1,1c-0.1,0.1-0.3,0.5-0.8,0.5c0,0,0,0,0,0c-0.1,0-3.3-0.1-5.3,0c-0.4,0-0.8,0.2-1,0.6c-0.4,0.7,0,1.5,0.8,2.9
	c1.8,3,9.1,9.7,9.4,9.9c0.4,0.5,0.3,0.9,0.2,1.2c-0.2,0.4-0.6,0.8-1.4,0.8c0,0,0,0,0,0l-0.2,0l-0.1,0c-0.2,0-1,0.1-3.5,0
	c-0.8,0-1.4,0.3-1.8,0.8c-0.6,0.7-0.7,1.7-0.5,2.3c1.1,4.4,9.5,13.4,9.8,13.7C84.2,63.4,84.1,64.3,83.9,64.9z"></path></svg>