<svg xmlns="http://www.w3.org/2000/svg" enable-background="new 0 0 68 68" viewBox="0 0 68 68" id="house"><path fill="#010101" d="M60.58309,9.41259c-0.35693-0.63965-1.03369-1.03711-1.76611-1.03711H9.18319
		c-0.73242,0-1.40918,0.39746-1.7666,1.0376L1.25985,20.45361c-0.35352,0.6333-0.34521,1.38428,0.02197,2.00928
		c0.3667,0.62549,1.01855,0.99854,1.74365,0.99854h3.80273v29.05127H4.9244c-1.11475,0-2.02197,0.90723-2.02197,2.02246v3.06689
		c0,1.11523,0.90723,2.02246,2.02197,2.02246h58.15137c1.11475,0,2.02197-0.90723,2.02197-2.02246v-3.06689
		c0-1.11523-0.90723-2.02246-2.02197-2.02246h-1.90381V23.46142h3.80225c0.72461,0,1.37646-0.37305,1.74365-0.99805
		s0.37598-1.37598,0.02295-2.00977L60.58309,9.41259z M40.36776,30.99414h13.12598v21.51855H40.36776
		C40.36724,49.21428,40.36648,30.85784,40.36776,30.99414z M63.09774,54.53515v3.06689c0,0.01221-0.00977,0.02246-0.02197,0.02246
		L4.90243,57.60205l0.02197-3.08936L63.09774,54.53515z M59.17196,52.51269h-3.67822V29.99414c0-0.55225-0.44775-1-1-1H39.36776
		c-0.55225,0-1,0.44775-1,1v22.51855H8.82821V23.46142h50.34375V52.51269z M64.97421,21.46142L3.00643,21.42773l6.17676-11.05225
		l49.65332,0.01123l6.14844,11.07373C64.98495,21.46045,64.98202,21.46142,64.97421,21.46142z"></path><path fill="#010101" d="M13.50643,45.52978h18.53857c0.55225,0,1-0.44775,1-1V31.44384c0-0.55225-0.44775-1-1-1H13.50643
		c-0.55225,0-1,0.44775-1,1v13.08594C12.50643,45.08203,12.95419,45.52978,13.50643,45.52978z M31.04501,43.52978h-7.26904V32.44384
		h7.26904V43.52978z M14.50643,32.44384h7.26953v11.08594h-7.26953V32.44384z"></path><rect width="2.044" height="2" x="42.435" y="40.753" fill="#010101"></rect><path fill="#010101" d="M23.04696 12.74267h-3.75732c-.55225 0-1 .44775-1 1s.44775 1 1 1h3.75732c.55225 0 1-.44775 1-1S23.59921 12.74267 23.04696 12.74267zM15.17782 12.74267h-3.13086c-.55225 0-1 .44775-1 1s.44775 1 1 1h3.13086c.55225 0 1-.44775 1-1S15.73007 12.74267 15.17782 12.74267z"></path></svg>