<svg xmlns="http://www.w3.org/2000/svg" enable-background="new 0 0 66 66" viewBox="0 0 66 66" id="living-room"><path d="M26 28.46h-6.78c.53-.91.81-1.93.81-3.01 0-1.07-.28-2.12-.82-3.04-.6-1.02-1.02-2.15-1.25-3.36-.07-.35-.38-.61-.74-.61h-2.47v-1.6c1.43-.34 2.5-1.62 2.5-3.15 0-1.79-1.46-3.25-3.25-3.25s-3.25 1.46-3.25 3.25c0 1.53 1.07 2.81 2.5 3.15v1.6h-2.47c-.36 0-.67.26-.74.61-.23 1.21-.65 2.34-1.25 3.36-.54.92-.82 1.97-.82 3.04 0 1.08.28 2.1.81 3.01H2c-.41 0-.75.34-.75.75v24 3c0 .41.34.75.75.75h3c.32 0 .61-.21.71-.51l.83-2.49h14.92l.83 2.49c.1.31.39.51.71.51h3c.41 0 .75-.34.75-.75v-3-24C26.75 28.8 26.41 28.46 26 28.46zM12.25 13.7c0-.96.79-1.75 1.75-1.75s1.75.79 1.75 1.75-.79 1.75-1.75 1.75S12.25 14.66 12.25 13.7zM9.47 25.45c0-.8.21-1.59.62-2.28.58-.99 1.02-2.08 1.3-3.22h5.22c.28 1.15.71 2.23 1.3 3.22.4.69.62 1.48.62 2.28 0 1.12-.41 2.18-1.15 3.01H14h-3.37C9.88 27.63 9.47 26.57 9.47 25.45zM2.75 29.96l10.5.02v22.48H2.75V29.96zM4.46 55.46H2.75v-1.5h2.21L4.46 55.46zM14.75 29.98l10.5-.02v22.5h-10.5V29.98zM25.25 55.46h-1.71l-.5-1.5h2.21V55.46zM61.75 40.54v-4.33c0-1.52-1.23-2.75-2.75-2.75H35c-1.52 0-2.75 1.23-2.75 2.75v4.33c-1.71.35-3 1.86-3 3.67v12c0 .41.34.75.75.75h34c.41 0 .75-.34.75-.75v-12C64.75 42.4 63.46 40.88 61.75 40.54zM35 34.96h24c.69 0 1.25.56 1.25 1.25v4.33c-1.71.35-3 1.86-3 3.67v3.25h-20.5v-3.25c0-1.81-1.29-3.33-3-3.67v-4.33C33.75 35.52 34.31 34.96 35 34.96zM36.75 48.96h20.5v1.25c0 .69-.56 1.25-1.25 1.25H38c-.69 0-1.25-.56-1.25-1.25V48.96zM63.25 55.46h-32.5V44.21c0-1.24 1.01-2.25 2.25-2.25s2.25 1.01 2.25 2.25v6c0 1.52 1.23 2.75 2.75 2.75h18c1.52 0 2.75-1.23 2.75-2.75v-6c0-1.24 1.01-2.25 2.25-2.25s2.25 1.01 2.25 2.25V55.46z"></path><path d="M47,44.96c0.41,0,0.75-0.34,0.75-0.75v-6c0-0.41-0.34-0.75-0.75-0.75s-0.75,0.34-0.75,0.75v6C46.25,44.62,46.59,44.96,47,44.96z"></path><circle cx="39" cy="40.21" r="1"></circle><circle cx="43" cy="40.21" r="1"></circle><circle cx="41" cy="38.21" r="1"></circle><circle cx="41" cy="42.21" r="1"></circle><circle cx="51" cy="40.21" r="1"></circle><circle cx="55" cy="40.21" r="1"></circle><circle cx="53" cy="38.21" r="1"></circle><circle cx="53" cy="42.21" r="1"></circle><path d="M11 44.96c.41 0 .75-.34.75-.75v-6c0-.41-.34-.75-.75-.75s-.75.34-.75.75v6C10.25 44.62 10.59 44.96 11 44.96zM17 37.46c-.41 0-.75.34-.75.75v6c0 .41.34.75.75.75s.75-.34.75-.75v-6C17.75 37.8 17.41 37.46 17 37.46zM64-4.54H34c-.41 0-.75.34-.75.75v22c0 .41.34.75.75.75h30c.41 0 .75-.34.75-.75v-22C64.75-4.2 64.41-4.54 64-4.54zM34.75-1.98l2.5 2.5V13.9l-2.5 2.5V-1.98zM54.31 13.46l-2.25-2.25L56 7.27l3.25 3.25v2.94H54.31zM59.25 8.4l-2.72-2.72c-.29-.29-.77-.29-1.06 0L51 10.15l-5.47-5.47c-.29-.29-.77-.29-1.06 0l-5.72 5.72V.96h20.5V8.4zM38.75 12.52L45 6.27l7.19 7.19H38.75V12.52zM59.69-.54H38.31l-2.5-2.5h26.38L59.69-.54zM38.31 14.96h21.38l2.5 2.5H35.81L38.31 14.96zM60.75 13.9v-3.69c0 0 0 0 0-.01V.52l2.5-2.5V16.4L60.75 13.9z"></path><path d="M51,7.96c1.52,0,2.75-1.23,2.75-2.75S52.52,2.46,51,2.46s-2.75,1.23-2.75,2.75S49.48,7.96,51,7.96z M51,3.96c0.69,0,1.25,0.56,1.25,1.25S51.69,6.46,51,6.46s-1.25-0.56-1.25-1.25S50.31,3.96,51,3.96z"></path></svg>