<svg xmlns="http://www.w3.org/2000/svg" data-name="Layer 1" viewBox="0 0 64 64" id="spaceship"><path d="M32,49.15c-14.86,0-30.65-3.6-30.65-10.27,0-3.14,3.55-5.83,10.26-7.77A1,1,0,0,1,12.17,33c-5.52,1.6-8.82,3.79-8.82,5.85,0,3.91,11.77,8.27,28.65,8.27s28.65-4.36,28.65-8.27c0-2.16-3.71-4.49-9.67-6.09a1,1,0,1,1,.52-1.93c7.19,1.93,11.15,4.78,11.15,8C62.65,45.55,46.86,49.15,32,49.15Z"></path><path d="M8.63 40.66a.93.93 0 01-.45-.11 9.47 9.47 0 01-1.43-.85 1 1 0 011.19-1.61 9.51 9.51 0 001.14.68 1 1 0 01-.45 1.89zM28.32 44.58h0c-1 0-1.88-.09-2.78-.16a1 1 0 01.15-2c.87.06 1.78.11 2.71.15a1 1 0 010 2zm7.35 0a1 1 0 010-2c.93 0 1.84-.09 2.71-.15a1 1 0 011.08.92 1 1 0 01-.93 1.07c-.9.07-1.82.12-2.78.16zm10-1a1 1 0 01-.18-2c.91-.16 1.8-.34 2.65-.54a1 1 0 01.45 2c-.88.2-1.8.39-2.75.56zm-27.42 0h-.18c-.94-.17-1.87-.36-2.75-.56a1 1 0 11.45-2c.85.19 1.74.37 2.65.54a1 1 0 01-.17 2zM55.37 40.66a1 1 0 01-.45-1.89 8.77 8.77 0 001.14-.68 1 1 0 111.19 1.61 10.38 10.38 0 01-1.43.85A1.06 1.06 0 0155.37 40.66zM32 39.88c-6.71 0-12.86-.86-16.86-2.36a1 1 0 01-.65-.93V32.36a17.51 17.51 0 1135 0v4.22a1 1 0 01-.73 1C44.86 39 38.71 39.88 32 39.88zm-15.51-4c3.76 1.26 9.48 2 15.51 2s11.76-.74 15.52-2V32.37h0a15.51 15.51 0 00-31 0zm33-3.52h0z"></path><path d="M22.29,27.61a1.25,1.25,0,0,1-.32-.05,1,1,0,0,1-.63-1.27c.09-.25,2.11-6.09,8.06-6.71a1,1,0,0,1,.21,2c-4.69.49-6.35,5.31-6.37,5.36A1,1,0,0,1,22.29,27.61Z"></path></svg>